<mxfile host="app.diagrams.net" modified="2021-07-14T06:43:38.272Z" agent="5.0 (Windows NT 10.0; Win64; x64) AppleWebKit/537.36 (KHTML, like Gecko) Chrome/91.0.4472.77 Safari/537.36" etag="xuKN9WKeA0TMN5pJPmj4" version="14.8.6" type="github">
  <diagram id="C5RBs43oDa-KdzZeNtuy" name="Page-1">
    <mxGraphModel dx="1831" dy="895" grid="1" gridSize="10" guides="1" tooltips="1" connect="1" arrows="1" fold="1" page="1" pageScale="1" pageWidth="827" pageHeight="1169" math="0" shadow="0">
      <root>
        <mxCell id="WIyWlLk6GJQsqaUBKTNV-0" />
        <mxCell id="WIyWlLk6GJQsqaUBKTNV-1" parent="WIyWlLk6GJQsqaUBKTNV-0" />
        <mxCell id="WIyWlLk6GJQsqaUBKTNV-3" value="手动上报开始" style="rounded=1;whiteSpace=wrap;html=1;fontSize=12;glass=0;strokeWidth=1;shadow=0;" parent="WIyWlLk6GJQsqaUBKTNV-1" vertex="1">
          <mxGeometry x="265" y="30" width="120" height="40" as="geometry" />
        </mxCell>
        <mxCell id="WIyWlLk6GJQsqaUBKTNV-2" value="" style="rounded=0;html=1;jettySize=auto;orthogonalLoop=1;fontSize=11;endArrow=block;endFill=0;endSize=8;strokeWidth=1;shadow=0;labelBackgroundColor=none;edgeStyle=orthogonalEdgeStyle;entryX=0.5;entryY=0;entryDx=0;entryDy=0;" parent="WIyWlLk6GJQsqaUBKTNV-1" source="WIyWlLk6GJQsqaUBKTNV-3" target="VtqD8g08iJqR6lNu_ig7-12" edge="1">
          <mxGeometry relative="1" as="geometry" />
        </mxCell>
        <mxCell id="WIyWlLk6GJQsqaUBKTNV-4" value="Yes" style="rounded=0;html=1;jettySize=auto;orthogonalLoop=1;fontSize=11;endArrow=block;endFill=0;endSize=8;strokeWidth=1;shadow=0;labelBackgroundColor=none;edgeStyle=orthogonalEdgeStyle;entryX=0.5;entryY=0;entryDx=0;entryDy=0;" parent="WIyWlLk6GJQsqaUBKTNV-1" source="WIyWlLk6GJQsqaUBKTNV-6" target="VtqD8g08iJqR6lNu_ig7-0" edge="1">
          <mxGeometry y="20" relative="1" as="geometry">
            <mxPoint as="offset" />
            <mxPoint x="450" y="475" as="targetPoint" />
          </mxGeometry>
        </mxCell>
        <mxCell id="WIyWlLk6GJQsqaUBKTNV-5" value="No" style="edgeStyle=orthogonalEdgeStyle;rounded=0;html=1;jettySize=auto;orthogonalLoop=1;fontSize=11;endArrow=block;endFill=0;endSize=8;strokeWidth=1;shadow=0;labelBackgroundColor=none;" parent="WIyWlLk6GJQsqaUBKTNV-1" source="WIyWlLk6GJQsqaUBKTNV-6" target="WIyWlLk6GJQsqaUBKTNV-7" edge="1">
          <mxGeometry y="10" relative="1" as="geometry">
            <mxPoint as="offset" />
          </mxGeometry>
        </mxCell>
        <mxCell id="WIyWlLk6GJQsqaUBKTNV-6" value="&lt;p class=&quot;MsoNormal&quot;&gt;&lt;span style=&quot;font-size: 10.5000pt&quot;&gt;&lt;font face=&quot;宋体&quot;&gt;判断idc中report_status=上报中&lt;/font&gt;&lt;/span&gt;&lt;/p&gt;" style="rhombus;whiteSpace=wrap;html=1;shadow=0;fontFamily=Helvetica;fontSize=12;align=center;strokeWidth=1;spacing=6;spacingTop=-4;" parent="WIyWlLk6GJQsqaUBKTNV-1" vertex="1">
          <mxGeometry x="170" y="295" width="310" height="120" as="geometry" />
        </mxCell>
        <mxCell id="WIyWlLk6GJQsqaUBKTNV-7" value="" style="rounded=1;whiteSpace=wrap;html=1;fontSize=12;glass=0;strokeWidth=1;shadow=0;" parent="WIyWlLk6GJQsqaUBKTNV-1" vertex="1">
          <mxGeometry x="580" y="335" width="120" height="40" as="geometry" />
        </mxCell>
        <mxCell id="VtqD8g08iJqR6lNu_ig7-0" value="&lt;font face=&quot;宋体&quot; style=&quot;font-size: 14px&quot;&gt;1.生成上报数据&lt;/font&gt;&lt;font face=&quot;Calibri&quot; style=&quot;font-size: 14px&quot;&gt;xml&lt;/font&gt;&lt;font face=&quot;宋体&quot; style=&quot;font-size: 14px&quot;&gt;，保存到本地，&lt;br&gt;2.通过ftp上报省侧&lt;br&gt;&lt;div style=&quot;&quot;&gt;&lt;span&gt;3.记录xml生成时间、xml上报时间&lt;/span&gt;&lt;/div&gt;&lt;/font&gt;" style="rounded=1;whiteSpace=wrap;html=1;align=left;" parent="WIyWlLk6GJQsqaUBKTNV-1" vertex="1">
          <mxGeometry x="177.5" y="465" width="295" height="90" as="geometry" />
        </mxCell>
        <mxCell id="VtqD8g08iJqR6lNu_ig7-3" value="&lt;p class=&quot;MsoNormal&quot; style=&quot;text-align: left&quot;&gt;&lt;font style=&quot;font-size: 14px&quot;&gt;&lt;font face=&quot;宋体&quot;&gt;将上述数据保存到基础数据历史记录表中（path、&lt;/font&gt;&lt;span&gt;xml生成时间、xml上报时间&lt;/span&gt;&lt;span&gt;）&lt;/span&gt;&lt;/font&gt;&lt;/p&gt;" style="rounded=1;whiteSpace=wrap;html=1;fontSize=12;glass=0;strokeWidth=1;shadow=0;" parent="WIyWlLk6GJQsqaUBKTNV-1" vertex="1">
          <mxGeometry x="177.5" y="655" width="292.5" height="90" as="geometry" />
        </mxCell>
        <mxCell id="VtqD8g08iJqR6lNu_ig7-4" value="&lt;p class=&quot;MsoNormal&quot; style=&quot;text-align: left&quot;&gt;&lt;span style=&quot;font-size: 10.5000pt&quot;&gt;&lt;font face=&quot;宋体&quot;&gt;将状态更新到基础表（包括&lt;/font&gt;&lt;font face=&quot;Calibri&quot;&gt;idc&lt;/font&gt;&lt;font face=&quot;宋体&quot;&gt;、&lt;/font&gt;&lt;font face=&quot;Calibri&quot;&gt;house&lt;/font&gt;&lt;font face=&quot;宋体&quot;&gt;、&lt;/font&gt;&lt;font face=&quot;Calibri&quot;&gt;customer&lt;/font&gt;&lt;font face=&quot;宋体&quot;&gt;、&lt;/font&gt;&lt;font face=&quot;Calibri&quot;&gt;app&lt;/font&gt;&lt;font face=&quot;宋体&quot;&gt;、&lt;/font&gt;&lt;font face=&quot;Calibri&quot;&gt;occupcy_house&lt;/font&gt;&lt;font face=&quot;宋体&quot;&gt;）&lt;/font&gt;&lt;/span&gt;&lt;span style=&quot;font-family: &amp;#34;calibri&amp;#34; ; font-size: 10.5000pt&quot;&gt;&lt;/span&gt;&lt;/p&gt;" style="rounded=1;whiteSpace=wrap;html=1;" parent="WIyWlLk6GJQsqaUBKTNV-1" vertex="1">
          <mxGeometry x="177.5" y="815" width="292.5" height="85" as="geometry" />
        </mxCell>
        <mxCell id="VtqD8g08iJqR6lNu_ig7-6" value="结束" style="rounded=1;whiteSpace=wrap;html=1;fontSize=12;glass=0;strokeWidth=1;shadow=0;" parent="WIyWlLk6GJQsqaUBKTNV-1" vertex="1">
          <mxGeometry x="263.75" y="1070" width="120" height="40" as="geometry" />
        </mxCell>
        <mxCell id="VtqD8g08iJqR6lNu_ig7-7" value="" style="rounded=0;html=1;jettySize=auto;orthogonalLoop=1;fontSize=11;endArrow=block;endFill=0;endSize=8;strokeWidth=1;shadow=0;labelBackgroundColor=none;edgeStyle=orthogonalEdgeStyle;exitX=0.5;exitY=1;exitDx=0;exitDy=0;entryX=0.5;entryY=0;entryDx=0;entryDy=0;" parent="WIyWlLk6GJQsqaUBKTNV-1" source="VtqD8g08iJqR6lNu_ig7-3" target="VtqD8g08iJqR6lNu_ig7-4" edge="1">
          <mxGeometry relative="1" as="geometry">
            <mxPoint x="323.25" y="755" as="sourcePoint" />
            <mxPoint x="323.25" y="805" as="targetPoint" />
            <Array as="points">
              <mxPoint x="324" y="780" />
              <mxPoint x="324" y="780" />
            </Array>
          </mxGeometry>
        </mxCell>
        <mxCell id="VtqD8g08iJqR6lNu_ig7-10" value="" style="rounded=0;html=1;jettySize=auto;orthogonalLoop=1;fontSize=11;endArrow=block;endFill=0;endSize=8;strokeWidth=1;shadow=0;labelBackgroundColor=none;edgeStyle=orthogonalEdgeStyle;exitX=0.5;exitY=1;exitDx=0;exitDy=0;" parent="WIyWlLk6GJQsqaUBKTNV-1" source="VtqD8g08iJqR6lNu_ig7-0" edge="1">
          <mxGeometry relative="1" as="geometry">
            <mxPoint x="550" y="745" as="sourcePoint" />
            <mxPoint x="325" y="655" as="targetPoint" />
          </mxGeometry>
        </mxCell>
        <mxCell id="VtqD8g08iJqR6lNu_ig7-12" value="&lt;font face=&quot;宋体&quot; style=&quot;font-size: 14px&quot;&gt;初始化一个&lt;/font&gt;&lt;font face=&quot;Calibri&quot; style=&quot;font-size: 14px&quot;&gt;current_submit_time&lt;/font&gt;&lt;font face=&quot;宋体&quot; style=&quot;font-size: 14px&quot;&gt;，获取idc中的submit_time，&lt;/font&gt;&lt;span style=&quot;font-size: 14px&quot;&gt;根据idc_id获取idc相关变更信息(详见 说明1)&lt;/span&gt;" style="rounded=1;whiteSpace=wrap;html=1;fontSize=12;glass=0;strokeWidth=1;shadow=0;" parent="WIyWlLk6GJQsqaUBKTNV-1" vertex="1">
          <mxGeometry x="189.38" y="150" width="271.25" height="70" as="geometry" />
        </mxCell>
        <mxCell id="VtqD8g08iJqR6lNu_ig7-13" value="" style="rounded=0;html=1;jettySize=auto;orthogonalLoop=1;fontSize=11;endArrow=block;endFill=0;endSize=8;strokeWidth=1;shadow=0;labelBackgroundColor=none;edgeStyle=orthogonalEdgeStyle;entryX=0.5;entryY=0;entryDx=0;entryDy=0;exitX=0.5;exitY=1;exitDx=0;exitDy=0;" parent="WIyWlLk6GJQsqaUBKTNV-1" source="VtqD8g08iJqR6lNu_ig7-12" target="WIyWlLk6GJQsqaUBKTNV-6" edge="1">
          <mxGeometry relative="1" as="geometry">
            <mxPoint x="325" y="190" as="sourcePoint" />
            <mxPoint x="335" y="120" as="targetPoint" />
          </mxGeometry>
        </mxCell>
        <mxCell id="VtqD8g08iJqR6lNu_ig7-14" value="&lt;div style=&quot;text-align: left&quot;&gt;&lt;font face=&quot;宋体&quot;&gt;&lt;span style=&quot;font-size: 14px&quot;&gt;更新&lt;/span&gt;&lt;/font&gt;&lt;span style=&quot;font-family: &amp;#34;calibri&amp;#34; ; font-size: 14px&quot;&gt;current_submit_time到idc表的submit_time字段中&lt;/span&gt;&lt;/div&gt;" style="rounded=1;whiteSpace=wrap;html=1;" parent="WIyWlLk6GJQsqaUBKTNV-1" vertex="1">
          <mxGeometry x="177.5" y="960" width="292.5" height="45" as="geometry" />
        </mxCell>
        <mxCell id="VtqD8g08iJqR6lNu_ig7-17" value="" style="rounded=0;html=1;jettySize=auto;orthogonalLoop=1;fontSize=11;endArrow=block;endFill=0;endSize=8;strokeWidth=1;shadow=0;labelBackgroundColor=none;edgeStyle=orthogonalEdgeStyle;exitX=0.5;exitY=1;exitDx=0;exitDy=0;entryX=0.5;entryY=0;entryDx=0;entryDy=0;" parent="WIyWlLk6GJQsqaUBKTNV-1" source="VtqD8g08iJqR6lNu_ig7-14" target="VtqD8g08iJqR6lNu_ig7-6" edge="1">
          <mxGeometry relative="1" as="geometry">
            <mxPoint x="323.25" y="1010" as="sourcePoint" />
            <mxPoint x="323.25" y="1080" as="targetPoint" />
            <Array as="points" />
          </mxGeometry>
        </mxCell>
        <mxCell id="VtqD8g08iJqR6lNu_ig7-19" value="" style="rounded=0;html=1;jettySize=auto;orthogonalLoop=1;fontSize=11;endArrow=block;endFill=0;endSize=8;strokeWidth=1;shadow=0;labelBackgroundColor=none;edgeStyle=orthogonalEdgeStyle;entryX=0.5;entryY=0;entryDx=0;entryDy=0;" parent="WIyWlLk6GJQsqaUBKTNV-1" target="VtqD8g08iJqR6lNu_ig7-14" edge="1">
          <mxGeometry relative="1" as="geometry">
            <mxPoint x="323" y="900" as="sourcePoint" />
            <mxPoint x="323.25" y="970" as="targetPoint" />
            <Array as="points">
              <mxPoint x="323" y="935" />
            </Array>
          </mxGeometry>
        </mxCell>
      </root>
    </mxGraphModel>
  </diagram>
</mxfile>
